<svg xmlns="http://www.w3.org/2000/svg" version="1.1" xmlns:xlink="http://www.w3.org/1999/xlink" width="1500" height="1500" viewBox="0 0 1500 1500"><rect width="1500" height="1500" x="0" y="0" id="background" stroke="transparent" fill="#ffe2c6"></rect><svg xml:space="preserve" width="1000" height="1000" data-version="2" data-id="lg_u51PiP4KYR53asc1r4" viewBox="0 0 295 232" x="250" y="250"><rect width="100%" height="100%" fill="transparent"></rect><path fill="#605c6b" d="M139.51 222.27q13.23-5.62 25.26-18.05v6.02q.4 9.62 6.82 14.23 6.41 4.61 14.23 4.41 7.82-.2 13.64-5.41 5.81-5.21 5.41-14.84-.4-12.83-.6-31.07-.2-18.25-.2-36.49 0-18.25-.8-31.48-1.61-26.47-6.82-50.53-.4-8.82-6.82-14.44 0-.4-2.4-2.8l-5.22-5.22q-2.8-2.4-6.61-5.61-3.81-3.21-7.02-4.81-27.67-13.64-52.33-9.63-24.66 4.01-45.31 20.86-20.66 16.84-35.49 42.5Q23.62 99.56 18 120.01q-5.61 20.45.41 46.12 6.01 25.66 26.86 42.9 24.46 21.26 61.76 19.65 18.04-.8 32.48-6.41m-18.05-36.09q-14.03 4.01-27.67 2-13.63-2-22.85-9.62-31.28-27.27.4-81 16.04-26.87 37.29-36.69 21.25-9.83 40.5.6 4.81 3.2 8.42 8.02 6.82 32.88 6.82 87.01-1.2.81-2.01 1.61-8.82 13.23-21.25 19.65-12.43 6.41-19.65 8.42m162.41 2.79q-7.62-8.02-16.44-7.21-8.83.8-15.24 7.21-6.42 6.42-7.62 15.24-1.2 8.82 7.22 17.25 7.62 8.02 16.64 7.21 9.02-.8 15.64-7.21 6.61-6.42 7.42-15.44.8-9.03-7.62-17.05"></path><path fill="#c57667" d="M128.84 210.74q13.23-5.61 25.26-18.04v6.01q.4 9.63 6.82 14.24 6.41 4.61 14.23 4.41 7.82-.2 13.64-5.41 5.81-5.22 5.41-14.84-.4-12.83-.6-31.08-.2-18.24-.2-36.49 0-18.24-.8-31.48-1.61-26.46-6.82-50.52-.4-8.82-6.82-14.44 0-.4-2.4-2.81l-5.22-5.21q-2.8-2.4-6.61-5.61-3.81-3.21-7.02-4.81-27.67-13.64-52.33-9.63-24.66 4.01-45.31 20.85-20.65 16.85-35.49 42.51-11.63 19.65-17.24 40.1-5.62 20.45.4 46.11 6.01 25.67 26.86 42.91 24.46 21.25 61.76 19.65 18.04-.8 32.48-6.42m-18.05-36.09q-14.03 4.01-27.67 2.01-13.63-2.01-22.85-9.62-31.28-27.27.4-81.01 16.04-26.86 37.29-36.69 21.25-9.82 40.5.6 4.81 3.21 8.42 8.02 6.82 32.89 6.82 87.02-1.2.8-2 1.6-8.83 13.24-21.26 19.65-12.43 6.42-19.65 8.42m162.41 2.81q-7.62-8.02-16.44-7.22-8.82.81-15.24 7.22-6.42 6.42-7.62 15.24-1.2 8.82 7.22 17.24 7.62 8.02 16.64 7.22 9.02-.8 15.64-7.22 6.62-6.41 7.42-15.44.8-9.02-7.62-17.04"></path></svg></svg>